<svg width="183" height="54" viewBox="0 0 183 54" fill="none" xmlns="http://www.w3.org/2000/svg">
<path d="M12.8016 37.9388H2.27193C0.528052 37.9388 -0.563792 36.0532 0.304604 34.5407L19.3662 1.33711C19.7706 0.632243 20.5209 0.197754 21.3336 0.197754H59.7204C61.4696 0.197754 62.5609 2.09423 61.6815 3.60669L56.2923 12.8766H28.56C27.7488 12.8766 26.9997 13.3096 26.5947 14.0121L12.8016 37.9388Z" fill="#4591D6"/>
<path d="M26.5949 14.012L12.8018 37.9389H40.5338C41.3449 37.9389 42.0941 37.5059 42.4993 36.8031L56.2924 12.8765H28.5601C27.7493 12.8765 26.9998 13.3095 26.5949 14.012Z" fill="#3957B3"/>
<path d="M40.5338 37.9389H12.8018L19.3708 49.3344C19.7758 50.0372 20.5252 50.4702 21.3364 50.4702H47.7575C48.5687 50.4702 49.3181 50.0372 49.7231 49.3344L62.863 26.5406C63.2674 25.8396 63.2674 24.9759 62.863 24.2745L56.2924 12.8765L42.4993 36.8031C42.0941 37.5059 41.3449 37.9389 40.5338 37.9389Z" fill="#4FCDEA"/>
<path d="M83.4497 20.9936C84.5209 20.9936 86.1361 20.7852 88.2953 20.3688C89.2301 20.1819 89.855 19.8714 90.1696 19.4381C90.4925 19.0045 90.654 18.2733 90.654 17.2449V12.5653C90.654 11.9191 90.5436 11.4389 90.3225 11.1242C90.11 10.8099 89.7319 10.6526 89.1876 10.6526C88.8986 10.6526 88.0869 10.6526 86.7524 10.6526C85.4177 10.644 84.6015 10.6399 84.304 10.6399C83.8789 10.6399 83.5474 10.7674 83.3095 11.0224C83.0799 11.2774 82.9654 11.5877 82.9654 11.9531C82.9654 12.3696 83.097 12.6969 83.3606 12.9348C83.6324 13.173 83.9937 13.292 84.4445 13.292H86.7267V17.4489C85.6981 17.7039 84.6697 17.8314 83.641 17.8314C80.0452 17.8314 78.2473 15.6935 78.2473 11.4176C78.2473 9.32635 78.6978 7.7029 79.5989 6.54671C80.5001 5.39052 81.8771 4.81258 83.7301 4.81258C85.1499 4.81258 86.6036 5.10155 88.091 5.6798C88.2782 5.79019 88.4736 5.84539 88.6778 5.84539C89.0686 5.84539 89.396 5.68806 89.6596 5.3737C89.9232 5.05904 90.0548 4.70218 90.0548 4.30252C90.0548 3.73313 89.7827 3.28684 89.2387 2.96362C88.5078 2.56425 87.6365 2.25402 86.6249 2.03294C85.6131 1.8033 84.5802 1.68848 83.5262 1.68848C81.9452 1.68848 80.534 1.93937 79.2928 2.44086C78.0605 2.94236 77.0572 3.63957 76.2838 4.53217C75.5187 5.41621 74.9405 6.43632 74.5497 7.59222C74.1586 8.73985 73.9629 9.9896 73.9629 11.3412C73.9629 14.4948 74.8047 16.8919 76.4878 18.5328C78.1709 20.1733 80.4915 20.9936 83.4497 20.9936Z" fill="#3957B2"/>
<path d="M95.4621 20.6113C96.0232 20.6113 96.5035 20.4114 96.9028 20.0121C97.3111 19.6038 97.515 19.0897 97.515 18.4692V13.407H100.971C105.663 13.407 108.009 11.5282 108.009 7.77098C108.009 6.72548 107.839 5.83288 107.499 5.09318C107.167 4.34521 106.683 3.76284 106.045 3.34635C105.416 2.92986 104.698 2.62819 103.89 2.44105C103.091 2.25421 102.169 2.16064 101.124 2.16064H95.8446C94.2295 2.16064 93.4219 3.08719 93.4219 4.94028V18.4692C93.4219 19.0897 93.6217 19.6038 94.0211 20.0121C94.4207 20.4114 94.901 20.6113 95.4621 20.6113ZM97.515 10.6781V5.0551H100.652C101.23 5.0551 101.706 5.08905 102.08 5.15694C102.454 5.22512 102.794 5.35677 103.1 5.55247C103.414 5.73931 103.64 6.0156 103.776 6.38102C103.92 6.74674 103.993 7.20986 103.993 7.77098C103.993 8.88467 103.716 9.64533 103.164 10.0535C102.611 10.4529 101.727 10.6613 100.511 10.6781H97.515Z" fill="#3957B2"/>
<path d="M112.103 20.5986C112.664 20.5986 113.144 20.3988 113.543 19.9991C113.951 19.5912 114.156 19.077 114.156 18.4562V12.7057H121.526V18.4562C121.526 19.077 121.725 19.5912 122.125 19.9991C122.524 20.3988 123.005 20.5986 123.566 20.5986C124.127 20.5986 124.607 20.3988 125.007 19.9991C125.415 19.5912 125.619 19.077 125.619 18.4562V4.3154C125.619 3.69495 125.415 3.18489 125.007 2.78523C124.607 2.3773 124.131 2.17334 123.578 2.17334C123.018 2.17334 122.533 2.3773 122.125 2.78523C121.725 3.18489 121.526 3.69495 121.526 4.3154V9.44136H114.156V4.3154C114.156 3.69495 113.951 3.18489 113.543 2.78523C113.144 2.3773 112.664 2.17334 112.103 2.17334C111.542 2.17334 111.061 2.3773 110.662 2.78523C110.262 3.18489 110.062 3.69495 110.062 4.3154V18.4562C110.062 19.077 110.262 19.5912 110.662 19.9991C111.061 20.3988 111.542 20.5986 112.103 20.5986Z" fill="#3957B2"/>
<path d="M85.0442 41.5995H79.0257L82.0349 33.3495L85.0442 41.5995ZM86.995 46.9676C87.2586 47.7241 87.7303 48.1834 88.4104 48.3448C88.5636 48.3788 88.7123 48.3959 88.8567 48.3959C89.3499 48.3959 89.7832 48.23 90.1575 47.8985C90.5315 47.567 90.7183 47.1376 90.7183 46.6107C90.7183 46.3642 90.6717 46.1048 90.5781 45.8329L85.363 32.4826C84.9551 31.3946 84.4831 30.659 83.9477 30.2764C83.4205 29.8856 82.7829 29.6899 82.0349 29.6899C81.287 29.6899 80.645 29.8856 80.1095 30.2764C79.5827 30.659 79.1192 31.3946 78.7199 32.4826L73.5045 45.8329C73.4026 46.1048 73.3516 46.3683 73.3516 46.6234C73.3516 47.142 73.5387 47.567 73.9127 47.8985C74.2867 48.23 74.7244 48.3959 75.2259 48.3959C75.6256 48.3959 75.991 48.2766 76.3225 48.0387C76.6625 47.8008 76.9134 47.4437 77.0749 46.9676L78.1077 44.1368H85.9622L86.995 46.9676Z" fill="#5FAFF5"/>
<path d="M95.5382 41.9059C95.5382 41.2937 95.6146 40.7411 95.7678 40.2482C95.9293 39.7549 96.1545 39.3429 96.4435 39.0111C96.741 38.6711 97.0982 38.4119 97.5146 38.2333C97.9397 38.055 98.4114 37.9656 98.93 37.9656C99.644 37.9656 100.384 38.1569 101.149 38.5394C101.183 38.5565 101.217 38.5734 101.251 38.5905C101.293 38.6073 101.332 38.6244 101.365 38.6416C101.399 38.6498 101.433 38.6584 101.467 38.6669C101.51 38.6755 101.548 38.6841 101.582 38.6923C101.616 38.7009 101.65 38.7053 101.684 38.7053C101.718 38.7053 101.752 38.7053 101.786 38.7053C102.101 38.7053 102.364 38.5905 102.577 38.3608C102.798 38.1229 102.908 37.8466 102.908 37.532C102.908 37.328 102.857 37.1326 102.755 36.9455C102.662 36.7586 102.513 36.5886 102.309 36.4354C101.909 36.1296 101.378 35.8746 100.715 35.6704C100.052 35.4578 99.3167 35.3516 98.5091 35.3516C97.251 35.3516 96.1161 35.6408 95.1046 36.2188C94.1016 36.7967 93.3196 37.5875 92.7585 38.5905C92.206 39.5849 91.9297 40.6945 91.9297 41.9186C91.9297 43.9077 92.546 45.5058 93.7786 46.7127C95.0195 47.9114 96.571 48.5106 98.4326 48.5106C99.3167 48.5106 100.12 48.4044 100.843 48.1918C101.574 47.9793 102.131 47.7116 102.513 47.3887C102.887 47.074 103.074 46.6959 103.074 46.2537C103.074 46.1434 103.061 46.0371 103.036 45.935C103.01 45.8331 102.972 45.7395 102.921 45.6545C102.879 45.561 102.823 45.476 102.755 45.3995C102.696 45.3231 102.623 45.2593 102.538 45.2083C102.462 45.1486 102.373 45.1061 102.271 45.0807C102.177 45.0468 102.079 45.0297 101.977 45.0297C101.765 45.0297 101.548 45.0934 101.327 45.2209C100.579 45.6545 99.7417 45.8712 98.8152 45.8712C97.7697 45.8712 96.9621 45.5058 96.3924 44.7746C95.823 44.0352 95.5382 43.0789 95.5382 41.9059Z" fill="#5FAFF5"/>
<path d="M104.095 44.8638C104.095 45.9857 104.503 46.8742 105.319 47.5286C106.144 48.1833 107.189 48.5103 108.456 48.5103C109.374 48.5103 110.168 48.3149 110.84 47.9238C111.52 47.5327 112.005 46.9675 112.294 46.2281V46.5849C112.294 47.3332 112.574 47.8601 113.135 48.1662C113.39 48.3022 113.658 48.3701 113.938 48.3701C114.372 48.3701 114.75 48.2172 115.073 47.9111C115.396 47.5965 115.558 47.1587 115.558 46.5979V40.4645C115.558 39.5466 115.426 38.7558 115.162 38.0928C114.899 37.4213 114.521 36.89 114.028 36.4989C113.543 36.1081 112.982 35.8233 112.344 35.6447C111.715 35.4575 110.997 35.3643 110.19 35.3643C108.413 35.3643 106.819 35.6999 105.408 36.3714C105.196 36.4735 105.038 36.6137 104.936 36.7923C104.834 36.9623 104.783 37.1536 104.783 37.3661C104.783 37.6976 104.894 37.9993 105.115 38.2714C105.336 38.5436 105.604 38.6793 105.918 38.6793C105.961 38.6793 106.003 38.6793 106.046 38.6793C106.088 38.6708 106.131 38.6625 106.173 38.6539C106.224 38.6368 106.271 38.62 106.314 38.6029C106.747 38.4243 107.091 38.2927 107.346 38.2077C107.601 38.1141 107.992 38.0078 108.519 37.8889C109.046 37.7699 109.544 37.7103 110.011 37.7103C111.456 37.7103 112.179 38.4414 112.179 39.9034V40.8217C111.159 40.8217 110.292 40.8429 109.578 40.8854C108.864 40.9194 108.183 40.9917 107.538 41.1021C106.9 41.2125 106.377 41.3613 105.969 41.5484C105.57 41.7355 105.221 41.982 104.924 42.2878C104.626 42.5854 104.414 42.9466 104.286 43.3717C104.158 43.7885 104.095 44.2855 104.095 44.8638ZM109.042 46.4066C108.481 46.4066 108.035 46.2449 107.703 45.922C107.38 45.5991 107.219 45.1528 107.219 44.5831C107.219 44.3195 107.248 44.0901 107.308 43.8944C107.376 43.6905 107.465 43.5163 107.576 43.3717C107.695 43.2273 107.861 43.1084 108.073 43.0148C108.286 42.9127 108.507 42.8321 108.736 42.7725C108.974 42.7129 109.28 42.6662 109.654 42.6323C110.037 42.5983 110.411 42.5771 110.776 42.5685C111.15 42.56 111.614 42.5558 112.166 42.5558V42.9765C112.166 43.4697 112.073 43.9369 111.885 44.3791C111.707 44.8127 111.469 45.1781 111.171 45.4757C110.874 45.7646 110.538 45.9943 110.164 46.1643C109.799 46.3258 109.425 46.4066 109.042 46.4066Z" fill="#5FAFF5"/>
<path d="M123.196 48.5613C125.219 48.5613 126.626 47.8048 127.417 46.2918V46.6359C127.417 47.1799 127.57 47.605 127.876 47.9111C128.182 48.2172 128.607 48.3701 129.151 48.3701C129.703 48.3701 130.141 48.1747 130.464 47.7836C130.787 47.3925 130.949 46.8611 130.949 46.1896V31.9724C130.949 31.3008 130.8 30.7864 130.502 30.4295C130.205 30.0723 129.78 29.894 129.227 29.894C128.641 29.894 128.19 30.0723 127.876 30.4295C127.561 30.7864 127.404 31.3008 127.404 31.9724V37.5062C126.639 36.1121 125.291 35.415 123.362 35.415C121.67 35.415 120.297 35.9888 119.243 37.1364C118.189 38.284 117.662 39.8738 117.662 41.9055C117.662 43.9029 118.168 45.514 119.18 46.738C120.191 47.9536 121.53 48.5613 123.196 48.5613ZM124.165 46.2918C123.715 46.2918 123.311 46.2023 122.954 46.024C122.597 45.8454 122.303 45.6117 122.074 45.3227C121.853 45.0337 121.666 44.6978 121.513 44.3153C121.368 43.9327 121.266 43.5502 121.207 43.1677C121.148 42.7766 121.118 42.3813 121.118 41.9819C121.118 41.1997 121.215 40.5028 121.411 39.8906C121.607 39.2702 121.942 38.7557 122.418 38.3478C122.894 37.9399 123.489 37.7359 124.203 37.7359C125.249 37.7359 126.039 38.1184 126.575 38.8832C127.119 39.6483 127.391 40.677 127.391 41.9692C127.391 43.3802 127.14 44.4555 126.639 45.1952C126.137 45.926 125.313 46.2918 124.165 46.2918Z" fill="#5FAFF5"/>
<path d="M139.774 48.5103C141.729 48.5103 143.374 47.9153 144.708 46.7254C144.742 46.6998 144.772 46.6699 144.797 46.636C144.831 46.6021 144.861 46.5681 144.887 46.5342C144.912 46.4999 144.934 46.466 144.951 46.432C144.967 46.3981 144.985 46.3641 145.001 46.3299C145.019 46.296 145.031 46.262 145.04 46.2281C145.057 46.1941 145.065 46.1599 145.065 46.1259C145.074 46.0834 145.078 46.0454 145.078 46.0111C145.086 45.9772 145.091 45.9391 145.091 45.8966C145.091 45.7434 145.057 45.5905 144.989 45.4376C144.929 45.2758 144.848 45.1356 144.746 45.0167C144.645 44.8977 144.521 44.8 144.377 44.7233C144.241 44.6468 144.101 44.6087 143.956 44.6087C143.769 44.6087 143.599 44.6725 143.446 44.8C142.341 45.6416 141.236 46.0622 140.131 46.0622C137.887 46.0622 136.709 44.919 136.599 42.6323H144.377C144.725 42.6323 144.989 42.5346 145.167 42.3389C145.354 42.1435 145.448 41.8757 145.448 41.5357C145.439 40.6856 145.316 39.8993 145.078 39.1767C144.848 38.4541 144.504 37.8039 144.045 37.2259C143.586 36.6477 142.97 36.1931 142.196 35.8613C141.423 35.5298 140.53 35.3643 139.519 35.3643C138.227 35.3643 137.083 35.6618 136.089 36.2569C135.094 36.8434 134.337 37.6253 133.819 38.6029C133.309 39.5805 133.054 40.6644 133.054 41.8545C133.054 43.9541 133.67 45.5861 134.903 46.7508C136.144 47.9153 137.767 48.5021 139.774 48.5103ZM136.624 40.8087C136.684 39.8907 136.968 39.1171 137.478 38.4881C137.988 37.8591 138.694 37.5447 139.595 37.5447C141.346 37.5447 142.298 38.6327 142.451 40.8087H136.624Z" fill="#5FAFF5"/>
<path d="M149.171 48.3574C149.757 48.3574 150.208 48.1789 150.522 47.822C150.845 47.4648 151.007 46.9506 151.007 46.2791V40.8087C151.007 39.8397 151.27 39.079 151.797 38.5264C152.324 37.9653 153.021 37.6849 153.888 37.6849C154.594 37.6849 155.142 37.9187 155.533 38.3862C155.933 38.8452 156.133 39.5209 156.133 40.4135V46.2791C156.133 46.9506 156.286 47.4648 156.592 47.822C156.898 48.1789 157.327 48.3574 157.88 48.3574C158.458 48.3574 158.9 48.1789 159.206 47.822C159.52 47.4648 159.678 46.9506 159.678 46.2791V41.1148C159.678 40.0439 159.949 39.2065 160.493 38.6029C161.046 37.991 161.743 37.6849 162.585 37.6849C163.273 37.6849 163.817 37.9101 164.217 38.3606C164.625 38.8027 164.829 39.4403 164.829 40.2733V46.2791C164.829 46.9506 164.982 47.4648 165.288 47.822C165.603 48.1789 166.036 48.3574 166.588 48.3574C167.167 48.3574 167.609 48.1789 167.915 47.822C168.221 47.4648 168.374 46.9506 168.374 46.2791V40.1714C168.374 38.5988 167.961 37.4042 167.137 36.5883C166.312 35.7722 165.233 35.3643 163.898 35.3643C161.654 35.3643 160.115 36.2908 159.282 38.1439C158.721 36.2908 157.357 35.3643 155.189 35.3643C153.115 35.3643 151.721 36.1674 151.007 37.774V37.264C151.007 36.72 150.841 36.2994 150.51 36.0018C150.178 35.7043 149.744 35.5555 149.209 35.5555C148.648 35.5555 148.214 35.7255 147.908 36.0656C147.602 36.3971 147.449 36.8941 147.449 37.5574V46.2791C147.449 46.9506 147.598 47.4648 147.896 47.822C148.193 48.1789 148.618 48.3574 149.171 48.3574Z" fill="#5FAFF5"/>
<path d="M175.324 52.8334L182.796 37.8253C182.864 37.6807 182.915 37.5363 182.949 37.3917C182.983 37.2474 183 37.1069 183 36.9711C183 36.5289 182.847 36.1635 182.541 35.8745C182.235 35.5853 181.874 35.4409 181.457 35.4409C181.152 35.4409 180.858 35.5345 180.578 35.7213C180.297 35.8999 180.068 36.1762 179.889 36.5502L176.688 42.9767L173.373 36.5759C173.305 36.4398 173.229 36.3208 173.144 36.2187C173.059 36.1083 172.965 36.0189 172.863 35.951C172.77 35.8745 172.668 35.8108 172.557 35.7597C172.455 35.7086 172.349 35.6747 172.238 35.6576C172.128 35.6322 172.013 35.6195 171.894 35.6195C171.452 35.6195 171.061 35.7683 170.721 36.0658C170.381 36.3633 170.211 36.7288 170.211 37.1624C170.211 37.4174 170.279 37.6765 170.415 37.9401L174.954 46.4449L172.481 51.418C172.353 51.6813 172.29 51.9449 172.29 52.2085C172.29 52.6589 172.455 53.0373 172.787 53.3434C173.118 53.6492 173.492 53.8024 173.909 53.8024C174.538 53.8024 175.01 53.4792 175.324 52.8334Z" fill="#5FAFF5"/>
</svg>
