<svg width="183" height="54" viewBox="0 0 183 54" fill="none" xmlns="http://www.w3.org/2000/svg">
<path d="M12.8016 37.741H2.27193C0.528052 37.741 -0.563792 35.8554 0.304604 34.343L19.3662 1.13936C19.7706 0.434489 20.521 0 21.3336 0H59.7204C61.4696 0 62.5609 1.89648 61.6815 3.40894L56.2923 12.6788H28.56C27.7488 12.6788 26.9997 13.1118 26.5947 13.8144L12.8016 37.741Z" fill="white"/>
<path d="M26.5949 13.8142L12.8018 37.7412H40.5338C41.3449 37.7412 42.0941 37.3082 42.4993 36.6054L56.2924 12.6787H28.5601C27.7493 12.6787 26.9998 13.1117 26.5949 13.8142Z" fill="#243994"/>
<path d="M40.5338 37.7412H12.8018L19.3708 49.1366C19.7758 49.8394 20.5252 50.2724 21.3364 50.2724H47.7575C48.5687 50.2724 49.3181 49.8394 49.7231 49.1366L62.863 26.3428C63.2674 25.6418 63.2674 24.7781 62.863 24.0768L56.2924 12.6787L42.4993 36.6054C42.0941 37.3082 41.3449 37.7412 40.5338 37.7412Z" fill="white"/>
<path d="M83.4497 20.7959C84.5209 20.7959 86.1361 20.5875 88.2953 20.171C89.2301 19.9842 89.855 19.6736 90.1696 19.2403C90.4925 18.8067 90.654 18.0756 90.654 17.0472V12.3675C90.654 11.7214 90.5436 11.2411 90.3225 10.9265C90.11 10.6121 89.7319 10.4548 89.1876 10.4548C88.8986 10.4548 88.0869 10.4548 86.7524 10.4548C85.4177 10.4462 84.6015 10.4421 84.304 10.4421C83.8789 10.4421 83.5474 10.5696 83.3095 10.8247C83.0799 11.0797 82.9654 11.3899 82.9654 11.7553C82.9654 12.1718 83.097 12.4992 83.3606 12.7371C83.6324 12.9753 83.9937 13.0942 84.4445 13.0942H86.7267V17.2511C85.6981 17.5062 84.6697 17.6337 83.641 17.6337C80.0452 17.6337 78.2473 15.4958 78.2473 11.2199C78.2473 9.1286 78.6978 7.50515 79.5989 6.34896C80.5001 5.19277 81.8771 4.61482 83.7301 4.61482C85.1499 4.61482 86.6036 4.9038 88.091 5.48204C88.2782 5.59244 88.4736 5.64764 88.6778 5.64764C89.0686 5.64764 89.396 5.4903 89.6596 5.17594C89.9232 4.86129 90.0548 4.50443 90.0548 4.10476C90.0548 3.53538 89.7827 3.08908 89.2387 2.76587C88.5078 2.3665 87.6365 2.05627 86.6249 1.83519C85.6131 1.60554 84.5802 1.49072 83.5262 1.49072C81.9452 1.49072 80.534 1.74161 79.2928 2.24311C78.0605 2.74461 77.0572 3.44181 76.2838 4.33441C75.5187 5.21845 74.9405 6.23857 74.5497 7.39447C74.1586 8.5421 73.9629 9.79185 73.9629 11.1434C73.9629 14.2971 74.8047 16.6942 76.4878 18.335C78.1709 19.9756 80.4915 20.7959 83.4497 20.7959Z" fill="white"/>
<path d="M95.4621 20.4135C96.0232 20.4135 96.5035 20.2137 96.9028 19.8143C97.3111 19.4061 97.515 18.8919 97.515 18.2714V13.2092H100.971C105.663 13.2092 108.009 11.3305 108.009 7.57323C108.009 6.52773 107.839 5.63513 107.499 4.89543C107.167 4.14746 106.683 3.56509 106.045 3.1486C105.416 2.73211 104.698 2.43044 103.89 2.2433C103.091 2.05645 102.169 1.96289 101.124 1.96289H95.8446C94.2295 1.96289 93.4219 2.88943 93.4219 4.74253V18.2714C93.4219 18.8919 93.6217 19.4061 94.0211 19.8143C94.4207 20.2137 94.901 20.4135 95.4621 20.4135ZM97.515 10.4804V4.85735H100.652C101.23 4.85735 101.706 4.89129 102.08 4.95918C102.454 5.02737 102.794 5.15902 103.1 5.35471C103.414 5.54156 103.64 5.81784 103.776 6.18327C103.92 6.54898 103.993 7.0121 103.993 7.57323C103.993 8.68691 103.716 9.44757 103.164 9.85579C102.611 10.2552 101.727 10.4636 100.511 10.4804H97.515Z" fill="white"/>
<path d="M112.103 20.4008C112.664 20.4008 113.144 20.201 113.543 19.8013C113.951 19.3934 114.156 18.8792 114.156 18.2585V12.5079H121.526V18.2585C121.526 18.8792 121.725 19.3934 122.125 19.8013C122.524 20.201 123.005 20.4008 123.566 20.4008C124.127 20.4008 124.607 20.201 125.007 19.8013C125.415 19.3934 125.619 18.8792 125.619 18.2585V4.11765C125.619 3.4972 125.415 2.98714 125.007 2.58748C124.607 2.17955 124.131 1.97559 123.578 1.97559C123.018 1.97559 122.533 2.17955 122.125 2.58748C121.725 2.98714 121.526 3.4972 121.526 4.11765V9.24361H114.156V4.11765C114.156 3.4972 113.951 2.98714 113.543 2.58748C113.144 2.17955 112.664 1.97559 112.103 1.97559C111.542 1.97559 111.061 2.17955 110.662 2.58748C110.262 2.98714 110.062 3.4972 110.062 4.11765V18.2585C110.062 18.8792 110.262 19.3934 110.662 19.8013C111.061 20.201 111.542 20.4008 112.103 20.4008Z" fill="white"/>
<path d="M85.0437 41.4018H79.0252L82.0345 33.1517L85.0437 41.4018ZM86.9945 46.7698C87.2581 47.5263 87.7298 47.9856 88.4099 48.1471C88.5631 48.181 88.7118 48.1981 88.8562 48.1981C89.3494 48.1981 89.7827 48.0322 90.157 47.7008C90.531 47.3693 90.7178 46.9398 90.7178 46.4129C90.7178 46.1665 90.6712 45.907 90.5776 45.6352L85.3625 32.2848C84.9546 31.1968 84.4826 30.4612 83.9472 30.0787C83.42 29.6879 82.7824 29.4922 82.0345 29.4922C81.2865 29.4922 80.6445 29.6879 80.109 30.0787C79.5822 30.4612 79.1187 31.1968 78.7194 32.2848L73.504 45.6352C73.4021 45.907 73.3511 46.1706 73.3511 46.4256C73.3511 46.9442 73.5382 47.3693 73.9122 47.7008C74.2862 48.0322 74.7239 48.1981 75.2254 48.1981C75.6251 48.1981 75.9905 48.0789 76.322 47.841C76.662 47.6031 76.9129 47.2459 77.0744 46.7698L78.1072 43.9391H85.9617L86.9945 46.7698Z" fill="white"/>
<path d="M95.5382 41.7076C95.5382 41.0954 95.6146 40.5429 95.7678 40.0499C95.9293 39.5567 96.1545 39.1446 96.4435 38.8129C96.741 38.4728 97.0982 38.2137 97.5146 38.0351C97.9397 37.8568 98.4114 37.7674 98.93 37.7674C99.644 37.7674 100.384 37.9586 101.149 38.3412C101.183 38.3583 101.217 38.3751 101.251 38.3922C101.293 38.4091 101.332 38.4262 101.365 38.4433C101.399 38.4516 101.433 38.4601 101.467 38.4687C101.51 38.4773 101.548 38.4858 101.582 38.4941C101.616 38.5026 101.65 38.5071 101.684 38.5071C101.718 38.5071 101.752 38.5071 101.786 38.5071C102.101 38.5071 102.364 38.3922 102.577 38.1626C102.798 37.9247 102.908 37.6484 102.908 37.3337C102.908 37.1298 102.857 36.9344 102.755 36.7472C102.662 36.5604 102.513 36.3904 102.309 36.2372C101.909 35.9314 101.378 35.6764 100.715 35.4721C100.052 35.2596 99.3167 35.1533 98.5091 35.1533C97.251 35.1533 96.1161 35.4426 95.1046 36.0205C94.1016 36.5985 93.3196 37.3892 92.7585 38.3922C92.206 39.3867 91.9297 40.4962 91.9297 41.7203C91.9297 43.7095 92.546 45.3075 93.7786 46.5145C95.0195 47.7132 96.571 48.3124 98.4326 48.3124C99.3167 48.3124 100.12 48.2061 100.843 47.9936C101.574 47.7811 102.131 47.5134 102.513 47.1904C102.887 46.8758 103.074 46.4977 103.074 46.0555C103.074 45.9451 103.061 45.8388 103.036 45.7367C103.01 45.6349 102.972 45.5413 102.921 45.4563C102.879 45.3627 102.823 45.2777 102.755 45.2013C102.696 45.1248 102.623 45.0611 102.538 45.01C102.462 44.9504 102.373 44.9079 102.271 44.8825C102.177 44.8485 102.079 44.8314 101.977 44.8314C101.765 44.8314 101.548 44.8952 101.327 45.0227C100.579 45.4563 99.7417 45.673 98.8152 45.673C97.7697 45.673 96.9621 45.3075 96.3924 44.5764C95.823 43.837 95.5382 42.8806 95.5382 41.7076Z" fill="white"/>
<path d="M104.095 44.666C104.095 45.788 104.503 46.6765 105.319 47.3308C106.144 47.9855 107.189 48.3126 108.456 48.3126C109.374 48.3126 110.168 48.1172 110.84 47.7261C111.52 47.335 112.005 46.7697 112.294 46.0303V46.3872C112.294 47.1354 112.574 47.6623 113.135 47.9684C113.39 48.1045 113.658 48.1724 113.938 48.1724C114.372 48.1724 114.75 48.0195 115.073 47.7134C115.396 47.3987 115.558 46.961 115.558 46.4002V40.2668C115.558 39.3488 115.426 38.558 115.162 37.8951C114.899 37.2235 114.521 36.6922 114.028 36.3011C113.543 35.9103 112.982 35.6255 112.344 35.4469C111.715 35.2598 110.997 35.1665 110.19 35.1665C108.413 35.1665 106.819 35.5021 105.408 36.1736C105.196 36.2758 105.038 36.416 104.936 36.5945C104.834 36.7646 104.783 36.9558 104.783 37.1684C104.783 37.4998 104.894 37.8015 105.115 38.0737C105.336 38.3458 105.604 38.4816 105.918 38.4816C105.961 38.4816 106.003 38.4816 106.046 38.4816C106.088 38.473 106.131 38.4647 106.173 38.4562C106.224 38.4391 106.271 38.4222 106.314 38.4051C106.747 38.2266 107.091 38.0949 107.346 38.0099C107.601 37.9163 107.992 37.8101 108.519 37.6911C109.046 37.5722 109.544 37.5125 110.011 37.5125C111.456 37.5125 112.179 38.2437 112.179 39.7057V40.6239C111.159 40.6239 110.292 40.6452 109.578 40.6877C108.864 40.7216 108.183 40.794 107.538 40.9043C106.9 41.0147 106.377 41.1635 105.969 41.3507C105.57 41.5378 105.221 41.7843 104.924 42.0901C104.626 42.3876 104.414 42.7489 104.286 43.1739C104.158 43.5907 104.095 44.0878 104.095 44.666ZM109.042 46.2089C108.481 46.2089 108.035 46.0471 107.703 45.7242C107.38 45.4013 107.219 44.955 107.219 44.3853C107.219 44.1217 107.248 43.8924 107.308 43.6967C107.376 43.4927 107.465 43.3186 107.576 43.1739C107.695 43.0296 107.861 42.9106 108.073 42.8171C108.286 42.7149 108.507 42.6344 108.736 42.5747C108.974 42.5151 109.28 42.4685 109.654 42.4345C110.037 42.4006 110.411 42.3793 110.776 42.3708C111.15 42.3622 111.614 42.3581 112.166 42.3581V42.7787C112.166 43.2719 112.073 43.7392 111.885 44.1813C111.707 44.615 111.469 44.9804 111.171 45.2779C110.874 45.5669 110.538 45.7965 110.164 45.9666C109.799 46.128 109.425 46.2089 109.042 46.2089Z" fill="white"/>
<path d="M123.196 48.3636C125.22 48.3636 126.627 47.6071 127.417 46.094V46.4382C127.417 46.9822 127.57 47.4072 127.876 47.7133C128.182 48.0194 128.607 48.1723 129.151 48.1723C129.704 48.1723 130.142 47.9769 130.465 47.5858C130.788 47.1947 130.949 46.6634 130.949 45.9919V31.7746C130.949 31.1031 130.8 30.5886 130.503 30.2317C130.205 29.8746 129.78 29.6963 129.228 29.6963C128.641 29.6963 128.191 29.8746 127.876 30.2317C127.561 30.5886 127.404 31.1031 127.404 31.7746V37.3085C126.639 35.9144 125.292 35.2172 123.362 35.2172C121.671 35.2172 120.298 35.791 119.244 36.9386C118.19 38.0863 117.663 39.6761 117.663 41.7077C117.663 43.7052 118.169 45.3162 119.18 46.5403C120.192 47.7558 121.531 48.3636 123.196 48.3636ZM124.166 46.094C123.715 46.094 123.311 46.0046 122.954 45.8263C122.597 45.6477 122.304 45.4139 122.075 45.1249C121.853 44.836 121.666 44.5001 121.513 44.1175C121.369 43.735 121.267 43.3524 121.207 42.9699C121.148 42.5788 121.118 42.1836 121.118 41.7842C121.118 41.002 121.216 40.3051 121.411 39.6929C121.607 39.0724 121.943 38.558 122.419 38.15C122.895 37.7421 123.49 37.5381 124.204 37.5381C125.249 37.5381 126.04 37.9207 126.576 38.6855C127.12 39.4506 127.391 40.4792 127.391 41.7715C127.391 43.1824 127.141 44.2577 126.639 44.9974C126.138 45.7283 125.313 46.094 124.166 46.094Z" fill="white"/>
<path d="M139.774 48.3126C141.729 48.3126 143.374 47.7175 144.708 46.5277C144.742 46.502 144.772 46.4722 144.797 46.4383C144.831 46.4043 144.861 46.3704 144.887 46.3364C144.912 46.3022 144.934 46.2682 144.951 46.2343C144.967 46.2003 144.985 46.1664 145.001 46.1321C145.019 46.0982 145.031 46.0643 145.04 46.0303C145.057 45.9964 145.065 45.9621 145.065 45.9282C145.074 45.8857 145.078 45.8476 145.078 45.8134C145.086 45.7794 145.091 45.7413 145.091 45.6988C145.091 45.5456 145.057 45.3927 144.989 45.2398C144.929 45.0781 144.848 44.9379 144.746 44.8189C144.645 44.7 144.521 44.6023 144.377 44.5255C144.241 44.4491 144.101 44.411 143.956 44.411C143.769 44.411 143.599 44.4748 143.446 44.6023C142.341 45.4438 141.236 45.8644 140.131 45.8644C137.887 45.8644 136.709 44.7212 136.599 42.4345H144.377C144.725 42.4345 144.989 42.3368 145.167 42.1411C145.354 41.9457 145.448 41.678 145.448 41.338C145.439 40.4879 145.316 39.7015 145.078 38.9789C144.848 38.2564 144.504 37.6061 144.045 37.0282C143.586 36.4499 142.97 35.9953 142.196 35.6636C141.423 35.3321 140.53 35.1665 139.519 35.1665C138.227 35.1665 137.083 35.464 136.089 36.0591C135.094 36.6456 134.337 37.4275 133.819 38.4051C133.309 39.3827 133.054 40.4666 133.054 41.6567C133.054 43.7563 133.67 45.3883 134.903 46.5531C136.144 47.7175 137.767 48.3043 139.774 48.3126ZM136.624 40.611C136.684 39.693 136.968 38.9193 137.478 38.2903C137.988 37.6613 138.694 37.3469 139.595 37.3469C141.346 37.3469 142.298 38.4349 142.451 40.611H136.624Z" fill="white"/>
<path d="M149.171 48.1597C149.758 48.1597 150.208 47.9811 150.523 47.6242C150.846 47.2671 151.007 46.7529 151.007 46.0814V40.611C151.007 39.6419 151.271 38.8812 151.798 38.3287C152.325 37.7675 153.022 37.4871 153.889 37.4871C154.595 37.4871 155.143 37.7209 155.534 38.1885C155.934 38.6475 156.133 39.3231 156.133 40.2157V46.0814C156.133 46.7529 156.286 47.2671 156.592 47.6242C156.898 47.9811 157.328 48.1597 157.88 48.1597C158.458 48.1597 158.9 47.9811 159.206 47.6242C159.521 47.2671 159.678 46.7529 159.678 46.0814V40.917C159.678 39.8462 159.95 39.0088 160.494 38.4051C161.047 37.7932 161.744 37.4871 162.585 37.4871C163.274 37.4871 163.818 37.7124 164.217 38.1628C164.625 38.605 164.829 39.2425 164.829 40.0755V46.0814C164.829 46.7529 164.982 47.2671 165.288 47.6242C165.603 47.9811 166.036 48.1597 166.589 48.1597C167.167 48.1597 167.609 47.9811 167.915 47.6242C168.221 47.2671 168.374 46.7529 168.374 46.0814V39.9737C168.374 38.401 167.962 37.2064 167.137 36.3906C166.313 35.5744 165.233 35.1665 163.898 35.1665C161.654 35.1665 160.116 36.093 159.283 37.9461C158.722 36.093 157.357 35.1665 155.19 35.1665C153.116 35.1665 151.721 35.9697 151.007 37.5763V37.0662C151.007 36.5222 150.842 36.1016 150.51 35.8041C150.179 35.5065 149.745 35.3578 149.21 35.3578C148.648 35.3578 148.215 35.5278 147.909 35.8678C147.603 36.1993 147.45 36.6964 147.45 37.3596V46.0814C147.45 46.7529 147.598 47.2671 147.896 47.6242C148.194 47.9811 148.619 48.1597 149.171 48.1597Z" fill="white"/>
<path d="M175.324 52.6356L182.796 37.6276C182.864 37.4829 182.915 37.3386 182.949 37.194C182.983 37.0496 183 36.9091 183 36.7733C183 36.3312 182.847 35.9657 182.541 35.6768C182.235 35.3875 181.874 35.2432 181.457 35.2432C181.152 35.2432 180.858 35.3367 180.578 35.5236C180.297 35.7022 180.068 35.9784 179.889 36.3524L176.688 42.7789L173.373 36.3781C173.305 36.242 173.229 36.1231 173.144 36.0209C173.059 35.9106 172.965 35.8211 172.863 35.7532C172.77 35.6768 172.668 35.613 172.557 35.562C172.455 35.5109 172.349 35.4769 172.238 35.4598C172.128 35.4344 172.013 35.4217 171.894 35.4217C171.452 35.4217 171.061 35.5705 170.721 35.868C170.381 36.1656 170.211 36.531 170.211 36.9646C170.211 37.2196 170.279 37.4788 170.415 37.7424L174.954 46.2472L172.481 51.2202C172.353 51.4835 172.29 51.7471 172.29 52.0107C172.29 52.4612 172.455 52.8396 172.787 53.1457C173.118 53.4515 173.492 53.6046 173.909 53.6046C174.538 53.6046 175.01 53.2814 175.324 52.6356Z" fill="white"/>
</svg>
